<?xml version="1.0" encoding="UTF-8"?>
<svg id="Layer_2" data-name="Layer 2" xmlns="http://www.w3.org/2000/svg" width="276" height="34.8" viewBox="0 0 276 34.8">
  <g id="Layer_1-2" data-name="Layer 1">
    <g>
      <path d="M9.6.9v8h4.7v5.5h-4.7v9.3c0,4.8,0,5.4,5,5.1v5.4c-1,.2-2.5.5-4.3.5s-4.9-.6-6.3-2.6c-1.2-1.8-1.2-4.3-1.2-7.6v-10H0v-5.5h3.1l.6-7.4,5.9-.6h0v-.1Z" fill="#fff"/>
      <path d="M24.4,0v11.6c.7-1.1,2.1-3.2,6.2-3.2,6.3,0,6.3,5.2,6.3,9.6v16.2h-7v-16.2c0-2.4,0-4.1-2.3-4.1s-3.2,2.3-3.2,4.3v16h-7V.1h7v-.1Z" fill="#fff"/>
      <path d="M48.5,8.9v16.2c0,2.5,0,4.1,2.4,4.1s3.1-2,3.1-7.4v-12.9h7v25.2h-6.6v-3.5c-1.3,2.1-2.4,4-6.5,4-6.4,0-6.4-4.7-6.4-9.3V8.9s7,0,7,0Z" fill="#fff"/>
      <path d="M72.9,8.9v3.4c1-2.1,2.4-4,6.3-4s3.8,0,5.6,2.7c1,1.6,1,4,1,6.5v16.6h-7v-16.6c0-2.2-.2-3.7-2.4-3.7s-3.1,2.5-3.1,5.5v14.8h-7V8.9h6.7-.1Z" fill="#fff"/>
      <path d="M109.8,0v34.1h-6.5v-4.1c-.7,1.8-1.8,4.5-5.8,4.5-6.8,0-8-7.8-8-12.8s0-13.1,8.3-13.1,4.4,1.6,5.1,2.7V.1h6.9v-.1ZM102.9,19.5c0-2.3,0-6.3-3.1-6.3s-3.1,3.3-3.1,7.3,0,9.1,3,9.1,3.1-3.8,3.1-5.7v-4.4h.1Z" fill="#fff"/>
      <path d="M121.2,22.7c0,3.4-.1,7.1,3.4,7.1s3.4-2.7,3.6-4.3l6.3.4c-.5,2.4-1.9,8.8-10,8.8s-10.5-6.1-10.5-12.8.2-5.6,1.9-8.7c1.8-3.2,5.1-4.8,8.5-4.8s7.1,2.5,8.2,4.6c1.8,3.4,1.8,6.7,1.8,9.7,0,0-13.2,0-13.2,0ZM127.8,18.7c0-1.4.2-5.6-3.3-5.6s-3.2,3.8-3.3,5.6h6.6Z" fill="#fff"/>
      <path d="M144.7,8.9v6.1c.6-2.2,1.8-6.4,5.9-6.4s.9,0,1.2.2v6.9h-1.2c-5.2,0-5.2,5.8-5.2,7.8v10.9h-7V9.2h6.2v-.3h.1Z" fill="#fff"/>
      <path d="M194.4,1v8h4.7v5.5h-4.7v9.3c0,4.8,0,5.4,5,5.1v5.4c-1,.2-2.5.5-4.3.5s-4.9-.6-6.3-2.6c-1.2-1.8-1.2-4.3-1.2-7.6v-10h-2.8v-5.5h3.1l.6-7.4,5.9-.6h0v-.1Z" fill="#fff"/>
      <path d="M208.4,22.7c0,3.4-.1,7.1,3.4,7.1s3.4-2.7,3.6-4.3l6.3.4c-.5,2.4-1.9,8.8-10,8.8s-10.5-6.1-10.5-12.8.2-5.6,1.9-8.7c1.8-3.2,5.1-4.8,8.5-4.8s7.1,2.5,8.2,4.6c1.8,3.4,1.8,6.6,1.8,9.7h-13.2,0ZM215,18.7c0-1.4.2-5.6-3.3-5.6s-3.2,3.8-3.3,5.6h6.6,0Z" fill="#fff"/>
      <path d="M238,18.5c-.3-3.6-1.1-4.7-2.8-4.7s-3.5,1.7-3.5,7.5.4,7.8,3.4,7.8,2.8-2.1,2.9-4.7l6.5.4c-.3,2.6-1.1,9.9-9.9,9.9s-10-7.7-10-13.1,2.5-13.2,10.4-13.2,4.8.5,6.8,2.6c2.4,2.6,2.6,5.1,2.7,7.2,0,0-6.5.3-6.5.3Z" fill="#fff"/>
      <path d="M255.4.1v11.6c.7-1.1,2.1-3.2,6.2-3.2,6.3,0,6.3,5.2,6.3,9.6v16.2h-7v-16.2c0-2.4,0-4.1-2.4-4.1s-3.2,2.3-3.2,4.3v16h-7V.2h7.1v-.1Z" fill="#fff"/>
      <polygon points="155.6 8.9 155.6 10.7 155.6 10.7 155.6 11.4 155.6 11.4 155.6 17.4 164 17.4 164 8.9 155.6 8.9" fill="#ff671d"/>
      <polygon points="155.6 25.8 155.6 27.5 155.6 27.5 155.6 28.2 155.6 28.2 155.6 34.2 164 34.2 164 25.8 155.6 25.8" fill="#ff671d"/>
      <polygon points="172.4 8.9 172.4 10.7 172.4 10.7 172.4 11.4 172.4 11.4 172.4 17.4 180.8 17.4 180.8 8.9 172.4 8.9" fill="#ff671d"/>
      <polygon points="172.4 25.8 172.4 27.5 172.4 27.5 172.4 28.2 172.4 28.2 172.4 34.2 180.8 34.2 180.8 25.8 172.4 25.8" fill="#ff671d"/>
      <path d="M273.368,29.3c.473,0,.877.135,1.282.337s.743.54,1.012,1.012c.27.405.337.877.337,1.35s-.135.877-.337,1.35c-.202.405-.54.742-1.012,1.013-.405.202-.877.337-1.35.337s-.877-.135-1.35-.337c-.405-.202-.743-.54-1.013-1.013-.202-.405-.337-.877-.337-1.35s.135-.877.337-1.35c.27-.405.54-.742,1.013-1.012.405-.202.877-.337,1.282-.337h.135ZM273.368,29.773c-.405,0-.743,0-1.08.27-.337.202-.607.473-.81.81-.202.338-.27.742-.27,1.148s.068.742.27,1.08.473.608.81.81.743.27,1.08.27.743,0,1.08-.27c.337-.202.607-.473.81-.81.202-.337.27-.742.27-1.08s-.068-.742-.27-1.148c-.202-.337-.473-.608-.81-.81s-.743-.27-1.08-.27h0ZM272.288,33.35v-2.7h1.62c.135,0,.27.135.338.27s.135.27.135.405-.068.337-.202.54c-.135.135-.337.202-.54.27.068,0,.202,0,.202.135.135.135.27.27.405.54l.338.54h-.54l-.27-.405c-.202-.337-.338-.54-.473-.608h-.607v1.148h-.405v-.135h0ZM272.76,31.865h.54c.27,0,.405,0,.54-.135.068,0,.135-.202.135-.27v-.202s-.135-.135-.202-.135h-.877v.81h-.135v-.067Z" fill="#fff"/>
    </g>
  </g>
</svg>