<svg xmlns="http://www.w3.org/2000/svg" viewBox="0 0 360 120">
  <path d="M68.6 12.9v65.8H2.8V12.9h65.8M71.4 10.1H0v71.4h71.4V10.1h0Z" fill="#fff"></path>
  <path d="M89.4 1.5v37.5h-37.5V1.5h37.5" fill="#ff671d"></path>
  <path d="M88.1 2.8v34.9h-34.9V2.8h34.9M90.9 0h-40.5v40.5h40.5V0h0Z" fill="#fff"></path>
  <path d="M85.3 48.3v8h4.7v5.5h-4.7v9.3c0 4.8 0 5.4 5 5.1v5.4c-1 .2-2.5.5-4.3.5s-4.9-.6-6.3-2.6c-1.2-1.8-1.2-4.3-1.2-7.6v-10h-2.8v-5.5h3.1l.6-7.4 5.9-.6h0Z" fill="#fff"></path>
  <path d="M100.1 47.4v11.6c.7-1.1 2.1-3.2 6.2-3.2 6.3 0 6.3 5.2 6.3 9.6v16.2h-7v-16.2c0-2.4 0-4.1-2.3-4.1s-3.2 2.3-3.2 4.3v16h-7v-34.1h7Z" fill="#fff"></path>
  <path d="M124.2 56.3v16.2c0 2.5 0 4.1 2.4 4.1s3.1-2 3.1-7.4v-12.9h7v25.2h-6.6v-3.5c-1.3 2.1-2.4 4-6.5 4-6.4 0-6.4-4.7-6.4-9.3v-16.4s7 0 7 0Z" fill="#fff"></path>
  <path d="M148.6 56.3v3.4c1-2.1 2.4-4 6.3-4s3.8 0 5.6 2.7c1 1.6 1 4 1 6.5v16.6h-7v-16.6c0-2.2-.2-3.7-2.4-3.7s-3.1 2.5-3.1 5.5v14.8h-7v-25.2h6.7-.1Z" fill="#fff"></path>
  <path d="M185.5 47.4v34.1h-6.5v-4.1c-.7 1.8-1.8 4.5-5.8 4.5-6.8 0-8-7.8-8-12.8s0-13.1 8.3-13.1 4.4 1.6 5.1 2.7v-11.2h6.9ZM178.6 66.9c0-2.3 0-6.3-3.1-6.3s-3.1 3.3-3.1 7.3 0 9.1 3 9.1 3.1-3.8 3.1-5.7v-4.4h.1Z" fill="#fff"></path>
  <path d="M196.9 70.1c0 3.4-.1 7.1 3.4 7.1s3.4-2.7 3.6-4.3l6.3.4c-.5 2.4-1.9 8.8-10 8.8s-10.5-6.1-10.5-12.8.2-5.6 1.9-8.7c1.8-3.2 5.1-4.8 8.5-4.8s7.1 2.5 8.2 4.6c1.8 3.4 1.8 6.7 1.8 9.7 0 0-13.2 0-13.2 0ZM203.5 66.1c0-1.4.2-5.6-3.3-5.6s-3.2 3.8-3.3 5.6h6.6Z" fill="#fff"></path>
  <path d="M220.4 56.3v6.1c.6-2.2 1.8-6.4 5.9-6.4s.9 0 1.2.2v6.9c-.6 0-.9 0-1.2 0-5.2 0-5.2 5.8-5.2 7.8v10.9h-7v-25.2h6.2v-.3Z" fill="#fff"></path>
  <path d="M270.1 48.4v8h4.7v5.5h-4.7v9.3c0 4.8 0 5.4 5 5.1v5.4c-1 .2-2.5.5-4.3.5s-4.9-.6-6.3-2.6c-1.2-1.8-1.2-4.3-1.2-7.6v-10h-2.8v-5.5h3.1l.6-7.4 5.9-.6h0Z" fill="#fff"></path>
  <path d="M284.1 70.1c0 3.4-.1 7.1 3.4 7.1s3.4-2.7 3.6-4.3l6.3.4c-.5 2.4-1.9 8.8-10 8.8s-10.5-6.1-10.5-12.8.2-5.6 1.9-8.7c1.8-3.2 5.1-4.8 8.5-4.8s7.1 2.5 8.2 4.6c1.8 3.4 1.8 6.6 1.8 9.7h-13.2 0ZM290.7 66.1c0-1.4.2-5.6-3.3-5.6s-3.2 3.8-3.3 5.6h6.6 0Z" fill="#fff"></path>
  <path d="M313.7 65.9c-.3-3.6-1.1-4.7-2.8-4.7s-3.5 1.7-3.5 7.5.4 7.8 3.4 7.8 2.8-2.1 2.9-4.7l6.5.4c-.3 2.6-1.1 9.9-9.9 9.9s-10-7.7-10-13.1 2.5-13.2 10.4-13.2 4.8.5 6.8 2.6c2.4 2.6 2.6 5.1 2.7 7.2 0 0-6.5.3-6.5.3Z" fill="#fff"></path>
  <path d="M331.1 47.5v11.6c.7-1.1 2.1-3.2 6.2-3.2 6.3 0 6.3 5.2 6.3 9.6v16.2h-7v-16.2c0-2.4 0-4.1-2.4-4.1s-3.2 2.3-3.2 4.3v16h-7v-34.1h7.1Z" fill="#fff"></path>
  <path d="M79.1 97.2v1.8c.6-1.4 1.6-2 3.1-2s2.4.6 2.8 2c.7-1.4 1.6-2 3.2-2s2.4.5 2.9 1.4c.3.7.4 1.4.4 3.4v8.5h-3.6v-8.1c0-1.9-.2-2.3-1.2-2.3s-1.3.6-1.3 2.9v7.6h-3.6v-8.2q0-1.4 0-1.7c-.2-.4-.5-.6-1-.6-1.1 0-1.4.6-1.4 2.9v7.6h-3.6v-13h3.5v-.2Z" fill="#fff"></path>
  <path d="M93.9 101c.4-2.6 2.2-4.1 5.2-4.1s3 .5 3.8 1.4c.6.7.8 1.6.8 3.8v5.2c0 2.1 0 2.3.2 2.9h-3.3c-.2-.6-.2-.7-.2-2-.4.7-.6 1-1 1.3-.7.6-1.6.9-2.6.9-2.1 0-3.4-1.3-3.4-3.6s.9-3.3 2.5-4c1.1-.4 2.5-.7 4.2-.8v-.5c0-1.8-.3-2.3-1.3-2.3s-1.4.6-1.5 2l-3.4-.3h0ZM100.1 103.9c-2.2.3-2.9.9-2.9 2.4s.4 1.6 1.2 1.6.9-.3 1.2-.8c.4-.6.5-1.3.5-2.6 0 0 0-.6 0-.6Z" fill="#fff"></path>
  <path d="M109.8 92.6v9.6l3.7-5h3.3l-3.3 4.3 3.6 8.6h-3.9l-2-6-1.3 1.8v4.2h-3.6v-17.6h3.6 0Z" fill="#fff"></path>
  <path d="M118.3 96.1v-3.6h3.7v3.6h-3.7ZM122 97.2v13h-3.6v-13h3.6Z" fill="#fff"></path>
  <path d="M127.9 97.2v1.8c.7-1.5 1.6-2 3.3-2s2.3.5 2.9 1.5c.4.7.5 1.3.5 3.3v8.5h-3.6v-8.5c0-1.5-.3-1.9-1.3-1.9s-1.3.3-1.5 1c-.1.3-.1.8-.1 1.8v7.6h-3.6v-13h3.5 0Z" fill="#fff"></path>
  <path d="M147.8 97.4h-.8c-.8 0-1.2.3-1.4 1.2.6.7 1 1.6 1 2.6 0 2.3-1.9 3.9-4.7 3.9s-1 0-1.7-.2c-.6.3-.8.7-.8 1.1s.2.5.5.6.4 0 2.6.3c2.5.2 3.2.3 4 .9s1.2 1.6 1.2 2.8c0 2.9-2.1 4.3-6.4 4.3s-5.3-1.1-5.3-3.1.6-1.9 2.1-2.4c-1.2-.6-1.7-1.3-1.7-2.3s.4-1.5.9-1.9c.3-.3.6-.5 1.3-.9-1.4-.8-1.9-1.6-1.9-3.3 0-2.5 1.8-4 4.8-4s1.7 0 2.8.6c.3-1.9.9-2.6 2.4-2.6s.6 0 1 0v2.3h0ZM139 111.2c0 .9.9 1.3 2.9 1.3s2.7-.4 2.7-1.4-.2-.8-.5-1c-.4-.2-.6-.3-2.3-.3s-.9 0-1.6 0c-.8.4-1.1.9-1.1 1.6h0ZM140.5 101.1c0 1.3.4 1.9 1.3 1.9s1.2-.6 1.2-2.1-.3-2.1-1.1-2.1-1.3.6-1.3 2.2h0Z" fill="#fff"></path>
  <path d="M157.4 92.6v5.8c.8-1 1.6-1.4 2.7-1.4 2.6 0 4.2 2.5 4.2 6.6s-1.7 6.8-4.6 6.8-2.3-.6-3-1.9c-.3.6-.4.9-.7 1.7h-2.1v-17.6h3.6 0ZM157.4 104.8c0 1.4 0 1.7.2 2.3.2.6.7.9 1.3.9 1.2 0 1.6-1.1 1.6-4.2s-.4-4.3-1.6-4.3-1.1.3-1.3.8c-.2.4-.2.7-.2 1.5 0 0 0 3 0 3Z" fill="#fff"></path>
  <path d="M169.4 97.2v3.1c.7-2.3 1.6-3.3 3.1-3.3s.3 0 .6 0v3.5h-.6c-1.8 0-2.7 1.3-2.7 4v5.6h-3.6v-13h3.2Z" fill="#fff"></path>
  <path d="M174.4 101c.4-2.6 2.2-4.1 5.2-4.1s3 .5 3.8 1.4c.6.7.8 1.6.8 3.8v5.2c0 2.1 0 2.3.2 2.9h-3.3c-.2-.6-.2-.7-.2-2-.4.7-.6 1-1 1.3-.7.6-1.6.9-2.6.9-2.1 0-3.4-1.3-3.4-3.6s.9-3.3 2.5-4c1.1-.4 2.5-.7 4.2-.8v-.5c0-1.8-.3-2.3-1.3-2.3s-1.4.6-1.5 2l-3.4-.3h0ZM180.7 103.9c-2.2.3-2.9.9-2.9 2.4s.4 1.6 1.2 1.6.9-.3 1.2-.8c.4-.6.5-1.3.5-2.6v-.6Z" fill="#fff"></path>
  <path d="M190.2 97.2v1.8c.7-1.5 1.6-2 3.3-2s2.3.5 2.9 1.5c.4.7.5 1.3.5 3.3v8.5h-3.6v-8.5c0-1.5-.3-1.9-1.3-1.9s-1.3.3-1.5 1c-.1.3-.1.8-.1 1.8v7.6h-3.6v-13h3.5 0Z" fill="#fff"></path>
  <path d="M209.2 92.6v17.6h-3.3v-2.2c-.7 1.7-1.4 2.3-3 2.3-2.6 0-4.1-2.4-4.1-6.7s1.6-6.7 4.3-6.7 2 .4 2.6 1.4v-5.8h3.6-.1ZM205.6 102.6c0-1.3 0-1.6-.3-2.4-.2-.5-.7-.9-1.3-.9-1.1 0-1.6 1.1-1.6 3.7s0 2.5.2 3.2c.2 1.1.6 1.6 1.4 1.6s1.6-.9 1.6-2.9v-2.3h0Z" fill="#fff"></path>
  <path d="M217.7 101.1c-.4-1.3-1-1.8-1.9-1.8s-1.1.4-1.1 1.1.4 1.1 2.2 1.8c1.7.6 2 .8 2.6 1.3.8.7 1.2 1.6 1.2 2.7 0 2.5-2 4.2-4.9 4.2s-2.8-.4-3.7-1.2c-.7-.6-1-1.3-1.2-2.6l2.9-.5c.3 1.3.9 1.9 2.1 1.9s1.4-.4 1.4-1.2-.4-1.2-2.1-1.7c-2.7-.9-3.9-2.1-3.9-4.1s1.9-4.1 4.6-4.1 2.3.4 3.1 1.1c.7.6 1 1.1 1.3 2.2l-2.6.8h0Z" fill="#fff"></path>
  <path d="M230.9 92.6v5.8c.8-1 1.6-1.4 2.7-1.4 2.6 0 4.2 2.5 4.2 6.6s-1.7 6.8-4.6 6.8-2.3-.6-3-1.9c-.3.6-.4.9-.7 1.7h-2.1v-17.6h3.6 0ZM230.9 104.8c0 1.4 0 1.7.2 2.3.2.6.7.9 1.3.9 1.2 0 1.6-1.1 1.6-4.2s-.4-4.3-1.6-4.3-1.1.3-1.3.8c-.2.4-.2.7-.2 1.5 0 0 0 3 0 3Z" fill="#fff"></path>
  <path d="M249.8 103.7c0 4.5-1.8 6.7-5.3 6.7s-5.3-2.3-5.3-6.7 1.7-6.8 5.3-6.8 5.2 2.3 5.2 6.8h.1ZM243 103.7c0 3.2.4 4.2 1.6 4.2s1.5-1.1 1.5-4.2-.4-4.2-1.5-4.2-1.6 1.1-1.6 4.2Z" fill="#fff"></path>
  <path d="M261.8 103.7c0 4.5-1.8 6.7-5.3 6.7s-5.3-2.3-5.3-6.7 1.7-6.8 5.3-6.8 5.2 2.3 5.2 6.8h0ZM255 103.7c0 3.2.4 4.2 1.6 4.2s1.5-1.1 1.5-4.2-.4-4.2-1.5-4.2-1.6 1.1-1.6 4.2Z" fill="#fff"></path>
  <path d="M267.2 97.2v1.8c.6-1.4 1.6-2 3.1-2s2.4.6 2.8 2c.7-1.4 1.6-2 3.2-2s2.4.5 2.9 1.4c.3.7.4 1.4.4 3.4v8.5h-3.6v-8.1c0-1.9-.2-2.3-1.2-2.3s-1.3.6-1.3 2.9v7.6h-3.6v-8.2q0-1.4-.1-1.7c-.2-.4-.5-.6-1-.6-1.1 0-1.4.6-1.4 2.9v7.6h-3.6v-13h3.5v-.2Z" fill="#fff"></path>
  <path d="M285.9 106.3v3.9h-3.6v-3.9h3.6Z" fill="#fff"></path>
  <polygon points="231.3 56.3 231.3 58.1 231.3 58.1 231.3 58.8 231.3 58.8 231.3 64.8 239.7 64.8 239.7 56.3 231.3 56.3" fill="#fff"></polygon>
  <polygon points="231.3 73.2 231.3 74.9 231.3 74.9 231.3 75.6 231.3 75.6 231.3 81.6 239.7 81.6 239.7 73.2 231.3 73.2" fill="#fff"></polygon>
  <polygon points="248.1 56.3 248.1 58.1 248.1 58.1 248.1 58.8 248.1 58.8 248.1 64.8 256.5 64.8 256.5 56.3 248.1 56.3" fill="#fff"></polygon>
  <polygon points="248.1 73.2 248.1 74.9 248.1 74.9 248.1 75.6 248.1 75.6 248.1 81.6 256.5 81.6 256.5 73.2 248.1 73.2" fill="#fff"></polygon>
  <path d="M341.7 43.1c.7 0 1.3.2 1.9.5s1.1.8 1.5 1.5c.4.6.5 1.3.5 2s-.2 1.3-.5 2c-.3.6-.8 1.1-1.5 1.5-.6.3-1.3.5-2 .5s-1.3-.2-2-.5c-.6-.3-1.1-.8-1.5-1.5-.3-.6-.5-1.3-.5-2s.2-1.3.5-2c.4-.6.8-1.1 1.5-1.5.6-.3 1.3-.5 1.9-.5h.2ZM341.7 43.8c-.6 0-1.1 0-1.6.4-.5.3-.9.7-1.2 1.2-.3.5-.4 1.1-.4 1.7s.1 1.1.4 1.6.7.9 1.2 1.2 1.1.4 1.6.4 1.1 0 1.6-.4c.5-.3.9-.7 1.2-1.2.3-.5.4-1.1.4-1.6s-.1-1.1-.4-1.7c-.3-.5-.7-.9-1.2-1.2s-1.1-.4-1.6-.4h0ZM340.1 49.1v-4h1.4c.5 0 .8 0 1 0 .2 0 .4.2.5.4s.2.4.2.6-.1.5-.3.8c-.2.2-.5.3-.8.4.1 0 .3 0 .3.2.2.2.4.4.6.8l.5.8h-.8l-.4-.6c-.3-.5-.5-.8-.7-.9-.1 0-.3 0-.5 0h-.4v1.7h-.6v-.2ZM340.8 46.9h.8c.4 0 .6 0 .8-.2.1 0 .2-.3.2-.4v-.3s-.2-.2-.3-.2h-1.3v1.2h-.2Z" fill="#fff"></path>
</svg>